PathFileType	4	(X/Y/Z)	OpenSim_Sub02_CSStiffKnee_Gyro.trc
DataRate	CameraRate	NumFrames	NumMarkers	Units	OrigDataRate	OrigDataStartFrame	OrigNumFrames
100	100	30	8	m	100	1723	6891
Frame#	Time	torso_imu_offset_imu	pelvis_imu_offset_imu	tibia_r_imu_offset_imu	femur_r_imu_offset_imu	tibia_l_imu_offset_imu	femur_l_imu_offset_imu	toes_r_imu_offset_imu	toes_l_imu_offset_imu
				X1	Y1	Z1	X2	Y2	Z2	X3	Y3	Z3	X4	Y4	Z4	X5	Y5	Z5	X6	Y6	Z6	X7	Y7	Z7	X8		Y8	Z8	

1723	17.22000000	-0.08655148	0.29806078	-0.10448361	-0.40931261	-0.38133218	0.30602174	-0.28918789	0.15486427	-2.15175293	1.14504332	0.38326682	0.37543980	-0.86912968	0.77014068	3.29756063	0.09497570	-0.20795366	-0.67773268	0.21611503	-3.37912051	-0.48988786	-0.08512900	0.90938373	-0.37294800
1724	17.23000000	-0.10972753	0.29862270	-0.14566767	-0.56218802	-0.31843951	0.30085104	-0.43694350	-0.02282563	-2.31155351	1.15887798	0.51609342	0.59040024	-1.28118260	0.28162068	4.13027652	-0.00526988	-0.08343507	-0.34569156	0.50061986	-3.82334859	-0.71295009	0.70495738	-0.85905619	0.13881897
1725	17.24000000	-0.21925626	0.32601843	-0.20056436	-0.78274385	-0.17326809	0.23720646	-0.62256524	-0.16469491	-2.47916352	0.97147938	0.69028681	0.84395311	1.50990701	0.55149177	1.83199175	-0.07075142	0.02752698	0.12068430	0.62619225	-4.34808855	-0.88749003	0.18018004	-0.04454524	-0.03644283
1726	17.25000000	-0.33392142	0.34109077	-0.28201036	-0.85517997	-0.06713357	0.10661535	-0.75480844	-0.23569001	-2.66014725	0.75252536	0.82274821	1.12008421	3.36489356	0.00015601	-0.71372826	0.04127516	0.05347534	0.80278710	0.59924189	-4.91374747	-0.96153244	0.38927776	-0.45182887	-0.05219136
1727	17.26000000	-0.42982770	0.28064492	-0.40473216	-0.80229729	-0.02042218	-0.02333983	-0.88522973	-0.18968731	-2.82167277	0.56800887	0.87459622	1.37989452	2.80099831	0.06936172	-0.33901270	0.49491874	0.00069064	1.48699442	0.53697818	-5.30450881	-0.97369196	0.17302883	-0.35851209	-0.00728051
1728	17.27000000	-0.50911068	0.20578457	-0.55865990	-0.79885519	0.00848385	-0.13142069	-0.76089345	0.09346464	-2.90637968	0.24244342	0.93128549	1.62243933	2.01380298	-0.07586191	0.36819316	0.89334764	-0.24420660	1.53733094	0.61335915	-5.50458739	-1.02279680	0.23230612	-0.42071782	-0.02552175
1729	17.28000000	-0.54994541	0.12396873	-0.68443125	-0.78215735	0.02776915	-0.19512646	-0.61127373	0.34237575	-2.89971534	-0.25918594	0.94919200	1.83702191	1.00604499	-0.22384581	1.00791662	1.01472906	-0.41752183	1.28620384	-0.47510759	-5.46385571	-1.31510185	0.26563595	-0.41418318	-0.02553680
1730	17.29000000	-0.53048515	0.06229828	-0.75145799	-0.66637468	0.05810070	-0.20180916	-0.55397947	0.37178622	-2.81649547	-0.73381184	0.90716673	1.98511739	-0.31936939	-0.09493088	1.35876752	0.82042923	0.04707198	1.08910990	-1.08879952	-4.68333163	-1.55695911	0.28995351	-0.47060110	-0.07865879
1731	17.30000000	-0.46247785	0.03261938	-0.79185574	-0.50864143	0.12927320	-0.14884897	-0.03221219	0.25157586	-2.67040190	-1.08635983	0.87494096	2.01512575	-0.60126082	-0.14182963	0.81093395	0.28359623	0.36855937	1.01917637	-2.52855681	-3.47162098	-2.04684675	0.33195075	-0.50618194	-0.10842349
1732	17.31000000	-0.35891358	0.01862210	-0.84048886	-0.34989954	0.21431822	-0.06917169	0.65997336	-0.10499301	-2.52534295	-1.40606070	0.89903727	1.89002697	0.10055340	0.08023833	0.23184800	-0.20013346	0.24611965	0.97811993	-3.51142374	-1.49917621	-3.06638411	0.30002974	-0.53604686	-0.13162535
1733	17.32000000	-0.25751356	-0.00033671	-0.87377178	-0.23113124	0.25856479	0.02537240	0.75411439	-0.61704360	-2.24575194	-1.67428730	0.95195048	1.63292892	0.54687681	0.17587226	0.35506683	-0.42375605	-0.14693489	0.94581499	-2.07478814	0.52029128	-3.97216837	0.36355235	-0.58539366	-0.11509347
1734	17.33000000	-0.17086708	-0.03951980	-0.82808788	-0.20956066	0.27703874	0.14230900	0.10623421	-1.01772525	-1.69255020	-1.74760215	1.00009045	1.42682465	0.78220339	0.20966530	0.72616725	-0.34918153	-0.33489517	0.92254453	-2.90377313	1.39031003	-4.13194939	0.31446724	-0.65719341	-0.03835905
1735	17.34000000	-0.10950916	-0.07945270	-0.71542466	-0.25926326	0.28386022	0.24585294	-1.21574977	-1.21439308	-0.88381340	-1.57253306	0.96006852	1.42288213	0.63902308	0.21298175	0.86808823	-0.06552752	-0.24778878	0.79838123	-1.40680403	2.36835456	-3.61366806	0.28246099	-0.75732198	0.04703540
1736	17.35000000	-0.10247984	-0.11272313	-0.58186328	-0.35032463	0.26582684	0.30596189	-3.24288056	-1.33701411	0.04394445	-1.35013802	0.90153504	1.49303731	0.43886462	0.24161317	0.74542857	0.19267697	-0.08520654	0.54259099	-0.97250128	2.99595419	-2.66711895	0.27065619	-0.88314389	0.08717361
1737	17.36000000	-0.13246409	-0.13957568	-0.46925312	-0.44593477	0.21777565	0.32294657	-4.68119487	-1.32512351	0.81108755	-1.06590934	0.88971677	1.58256927	0.42256873	0.32100571	0.65139277	0.43367987	0.02103767	0.47016877	-0.33987229	3.26548455	-1.50742757	0.29417451	-1.03323212	0.08840384
1738	17.37000000	-0.17850773	-0.15222504	-0.40445496	-0.53080509	0.15436166	0.31729537	-4.84805568	-1.25085506	1.33903182	-0.73210165	0.87560125	1.65506164	0.37859983	0.38944121	0.62673386	0.68449988	0.00425722	0.45123531	-0.42579177	3.28306596	-0.37450673	0.30063296	-1.17799270	0.06235755
1739	17.38000000	-0.23739411	-0.16550086	-0.35732686	-0.57499601	0.09497926	0.29306982	-4.21137495	-1.20398336	1.82845807	-0.42330465	0.80989524	1.66283306	0.24876354	0.44267710	0.64778512	0.94696617	-0.02224349	0.51018733	-0.94474714	3.17315144	0.63190686	0.30423847	-1.32925378	0.02461905
1740	17.39000000	-0.28883361	-0.20048509	-0.33618185	-0.57329562	0.04951494	0.27281473	-3.28876104	-1.19525091	2.30313334	-0.12723736	0.73526387	1.59951982	0.10900443	0.45612707	0.70252309	1.06622408	-0.00021966	0.53460866	-1.36415814	3.16772946	1.44226643	0.34237570	-1.44046862	-0.04070046
1741	17.40000000	-0.32513969	-0.24606432	-0.34520036	-0.54479940	0.02713225	0.26853844	-2.14494193	-1.20561831	2.71688538	0.17919026	0.67227423	1.45959040	-0.00673700	0.49998485	0.73114253	1.07135923	0.12440369	0.57558451	-1.49418666	3.30187217	1.99922887	0.36152749	-1.53851256	-0.08364984
1742	17.41000000	-0.33010585	-0.28807283	-0.38669025	-0.48264361	0.04489915	0.27158404	-0.70283625	-1.19850705	3.04915825	0.47105656	0.61495592	1.26116795	-0.09230392	0.51471747	0.72032137	0.97849120	0.21738246	0.52862206	-1.35316312	3.51722218	2.31248662	0.36825371	-1.63743722	-0.08516699
1743	17.42000000	-0.31028307	-0.31723212	-0.42736703	-0.40243842	0.06596297	0.27716240	0.82413832	-1.12203185	3.37187964	0.64970224	0.55937505	1.04673772	-0.13667047	0.53253417	0.69812969	0.81111454	0.29591122	0.51050519	-1.13683820	3.77199762	2.43932855	0.33646985	-1.67734327	-0.07434044
1744	17.43000000	-0.27009123	-0.33741562	-0.46025694	-0.32296229	0.08076492	0.25614678	2.05325633	-0.99744101	3.77394436	0.70237993	0.49004909	0.87801711	-0.17073952	0.51177462	0.68194457	0.61678012	0.30526395	0.54099182	-1.00094129	4.03604563	2.43106321	0.32803980	-1.72670614	-0.03550339
1745	17.44000000	-0.22842681	-0.34030991	-0.47675121	-0.24296299	0.10043568	0.23226342	2.88509051	-0.80273532	4.25252106	0.65820196	0.43631952	0.78402089	-0.13052936	0.47568609	0.65795597	0.44467191	0.24976095	0.64511999	-0.92067709	4.35648925	2.37344202	0.26092414	-1.72163116	0.00904536
1746	17.45000000	-0.18161247	-0.33359027	-0.47815633	-0.17350732	0.11586717	0.20289688	3.42912919	-0.55154070	4.71241471	0.60162671	0.40576317	0.77374436	-0.08912544	0.47916308	0.64094304	0.17239185	0.21442301	0.71591955	-0.89451031	4.66205842	2.31940783	0.26523588	-1.69581086	0.03966632
1747	17.46000000	-0.10403011	-0.33795365	-0.45846270	-0.11289495	0.13121401	0.16190506	3.72597350	-0.27618788	5.05157652	0.59158703	0.38559477	0.80039999	0.01327357	0.47251747	0.64406250	-0.04697605	0.17872923	0.76576783	-0.81592045	4.90406318	2.28852623	0.27480164	-1.64300600	0.07241682
1748	17.47000000	-0.03280510	-0.33705520	-0.43146421	-0.04170157	0.16089434	0.11108561	3.73234984	0.01227215	5.24409853	0.59776058	0.35358018	0.77790474	0.09760513	0.45831319	0.64443710	-0.20617332	0.16709559	0.76525565	-0.76513922	5.06541792	2.28689392	0.23243074	-1.56371645	0.10002002
1749	17.48000000	0.03288729	-0.32430218	-0.39723809	0.05017324	0.18703538	0.06060136	3.42534033	0.30445038	5.27437645	0.58647545	0.30836400	0.68884558	0.20398154	0.45538060	0.63219279	-0.24053643	0.17410225	0.75861572	-0.74470615	5.10809674	2.32213394	0.22282224	-1.48351050	0.12265115
1750	17.49000000	0.11270250	-0.31559414	-0.35417503	0.12824740	0.22558784	0.02934831	2.78039796	0.52207302	5.20826167	0.53179132	0.26268106	0.52124265	0.26906087	0.46213547	0.61264375	-0.17653586	0.17407137	0.75968777	-0.77829298	5.06268472	2.36817497	0.19225117	-1.40170565	0.15495919
1751	17.50000000	0.18553954	-0.30397840	-0.30659626	0.18801354	0.25626847	-0.00331834	1.79718723	0.51276330	5.16644009	0.37881581	0.20825783	0.29137002	0.24103027	0.44315664	0.61659937	-0.07713842	0.17524522	0.76360936	-0.65974708	5.00113919	2.41958190	0.14884515	-1.32036480	0.20408885
1752	17.51000000	0.23339235	-0.28789761	-0.26412309	0.24158527	0.26301464	-0.03711026	0.66689437	0.36293280	5.18371066	0.20876796	0.12717868	0.06067988	0.17920303	0.43616780	0.65159709	0.12546165	0.17360758	0.80174482	-0.42317179	4.96763452	2.46161614	0.10069604	-1.21617321	0.22844064
